<svg xmlns="http://www.w3.org/2000/svg" width="2500" height="2500" viewBox="0 0 192.756 192.756"><g fill-rule="evenodd" clip-rule="evenodd"><path fill="#fff" d="M0 0h192.756v192.756H0V0z"/><path d="M102.135 91.37c-13.534.527-28.121-2.021-40.423-8.173l2.548-4.042c11.951 5.624 25.66 7.558 37.875 7.03 0 .439.525-8.261 1.316-13.006H85.086c1.669-19.157 7.557-36.205 16.345-50.704H46.509v83.658h57.733c-1.318-5.01-2.107-14.939-2.107-14.763z" fill="#d0e9fb"/><path d="M107.67 85.833c10.018-.967 18.805-3.603 24.166-7.03L135 82.845c-7.383 4.307-16.961 7.118-27.33 8.173.264 5.185 1.055 10.105 2.373 15.115h39.543V22.475h-42.092c-8.963 13.709-14.06 28.999-15.993 45.168h18.894c-1.583 6.151-2.549 12.215-2.725 18.19zM71.465 35.129h5.361V47.52h-5.361V35.129z" fill="#00acec"/><path d="M116.105 35.129h5.362V47.52h-5.362V35.129z"/><path d="M107.67 85.833c10.018-.967 18.805-3.603 24.166-7.03L135 82.845c-7.383 4.307-16.961 7.118-27.33 8.173.439 9.314 2.725 18.541 7.293 27.417l-4.568 2.459c-8.348-13.18-9.842-30.931-6.943-47.715H85.086c2.285-26.099 12.302-48.244 26.89-65.467l3.953 3.427C101.695 27.66 93.874 46.905 91.501 67.643h18.894c-1.583 6.151-2.549 12.215-2.725 18.19z"/><path d="M102.135 86.185v5.185c-13.534.527-28.121-2.021-40.423-8.173l2.548-4.042c11.95 5.624 25.659 7.557 37.875 7.03z" fill="#00acec"/><path d="M15.752 134.252c-2.46.176-3.69.264-5.272.264-.967 0-1.934 0-3.076-.088H5.647c-.879 0-1.318.352-1.318 1.23 0 .791.439 1.23 1.494 1.318l1.845.176c2.988.264 3.251.527 3.251 3.076 0 .352-.087 1.23-.087 2.197l-1.67 29.613c-.352 5.975-.439 6.502-.967 7.205-.264.439-1.054.879-2.285 1.055l-1.142.176c-1.67.352-1.934.615-1.934 1.582 0 .703.439 1.143 1.143 1.143h.439l1.055-.088c1.318-.088 3.339-.176 4.833-.176s4.569.088 5.448.176l1.23.088.439.088c.703.088 1.318-.527 1.318-1.318 0-.879-.439-1.23-1.494-1.406l-1.406-.176c-3.251-.352-3.603-.879-3.603-4.395 0-1.141 0-2.723.088-3.777l.966-28.822 12.566 37.961c.352 1.055.527 1.23.967 1.23.527 0 .615-.176 1.055-1.318l12.917-37.787.176 29.176v2.812c0 3.777-.352 4.48-2.724 4.832l-1.143.176c-1.23.176-1.669.527-1.669 1.494 0 .791.439 1.143 1.318 1.23h.352l.967-.176c1.143-.088 4.481-.264 6.063-.264 1.406 0 2.285 0 3.427.176 1.142.088 2.021.088 2.285.088h1.055c.878 0 1.318-.352 1.318-1.23 0-.791-.439-1.143-1.845-1.318l-1.23-.176c-1.845-.176-2.46-.791-2.724-2.021-.176-1.229-.176-2.723-.264-7.996l-.176-25.484-.088-3.602c0-3.516.176-3.779 2.987-4.131l1.67-.176c1.23-.176 1.582-.527 1.582-1.406 0-.791-.264-1.055-1.318-1.143h-.264l-1.055.088c-1.318 0-2.373.088-3.603.088-1.318 0-2.461-.088-4.746-.176l-12.917 37.523-12.477-37.611zm96.049 11.424v-5.008h-.967l-1.23 4.217h-.088l-1.318-4.217h-.967v5.008h.615v-2.898-1.23l1.406 4.129h.527l1.406-4.217v4.216h.616zm-47.365 33.217c1.406-.615 2.9-1.756 3.955-2.986.703-1.055.966-1.758.966-3.076l.176-7.908c-2.46 1.229-3.867 2.02-5.097 2.898-.439.264-.791.615-1.142.879-2.637 2.197-3.955 4.658-3.955 6.943 0 2.283 1.23 3.777 2.988 3.777.615 0 1.318-.176 2.109-.527zm0-14.059c1.494-.879 3.251-1.758 5.097-2.549v-6.328c0-4.305-.967-6.15-3.339-6.15-.615 0-1.23.088-1.757.264-2.373.879-4.13 3.34-4.746 6.941l-.264 1.318c-.352 1.582-.703 1.934-1.933 1.934h-1.23c-.967 0-1.494-.527-1.494-1.406 0-1.494 1.494-5.096 3.164-7.117 1.757-2.109 4.042-3.604 6.503-4.307.966-.264 2.021-.439 3.076-.439 2.636 0 3.954.352 5.097 1.318 1.669 1.406 2.109 2.725 2.109 7.029v.527l-.176 15.994c0 5.186 0 5.186.176 5.887.088.703.615 1.406 1.318 1.494 1.318.176 1.846-.352 2.373-1.318.439-1.141 1.846-1.141 1.67.088-.088 1.318-.439 2.373-1.582 3.691-1.406 1.582-3.339 2.021-5.272 2.021-2.637 0-3.867-1.67-3.867-5.186-1.318 1.67-3.076 3.076-4.921 4.043-1.669.791-3.515 1.318-5.185 1.318-3.427 0-5.712-2.461-5.712-6.24-.002-4.391 3.864-8.962 10.895-12.827zm38.224-23.551h1.67v4.393h.615v-4.393h1.67v-.615h-3.955v.615zm1.406 36.203c-1.582 2.197-3.865 4.043-7.557 3.955-7.205-.264-10.105-8.084-10.105-16.783 0-8.525 3.779-14.764 8.875-15.027 1.757-.088 3.076.527 4.218 1.67 1.143 1.055 2.021 2.461 2.461 3.602.877 2.549 3.338 4.395 2.986-3.25-.176-2.812-3.602-4.834-7.469-4.746-9.754.264-16.521 7.908-16.521 19.859 0 10.459 5.185 17.4 12.917 17.4 2.987 0 6.591-.176 9.05-2.109 1.934-1.406 2.461-2.109 2.812-3.604.443-1.932-1.139-1.668-1.667-.967z"/><path d="M139.656 132.406c-12.479.264-21.441 11.072-21.441 26.188 0 15.643 8.699 26.451 21.09 26.451h.352c6.328-.088 11.248-2.637 15.467-8.084 4.041-5.098 5.799-10.723 5.799-18.455 0-7.117-1.494-12.654-4.48-17.223-3.779-5.713-9.58-8.877-16.434-8.877h-.353zm0 50.002c-4.568 0-7.645-1.758-10.633-6.152-3.164-4.656-4.568-10.105-4.568-17.574 0-13.797 6.15-23.375 15.201-23.639h.352c4.131 0 7.469 1.846 10.193 5.625 3.164 4.217 4.658 10.105 4.658 17.838 0 7.119-1.23 12.566-4.043 16.961-2.988 4.832-6.326 6.941-11.16 6.941zm47.629-47.013c-2.725-1.758-5.271-2.461-8.787-2.461-7.91 0-13.797 5.889-13.797 14.061 0 5.625 2.549 9.051 8.963 12.303l4.131 1.934c5.008 2.549 7.117 5.359 7.117 9.93 0 6.24-3.779 10.633-8.963 10.633-2.725 0-5.098-1.055-6.59-3.076-1.318-1.668-2.373-4.305-2.812-6.502l-.176-1.67c-.264-1.494-.527-1.934-1.406-1.934-.791 0-1.23.703-1.23 2.109l.264 10.896c3.428 2.021 6.854 2.988 10.984 2.988 5.186 0 9.051-1.758 11.688-5.361 2.109-2.812 3.252-6.326 3.252-10.105 0-6.502-2.549-10.457-8.525-13.533l-2.723-1.406c-4.922-2.459-5.977-3.162-7.207-4.568-1.229-1.406-1.844-3.252-1.844-5.537 0-4.92 3.162-8.436 7.381-8.436 4.129 0 7.293 3.076 7.996 7.646l.176 1.229c.088.967.439 1.406 1.143 1.406.879 0 1.055-.088 1.23-1.582v-.176l-.265-8.788z" fill="#00acec"/></g></svg>